HIERARCHY
ROOT Hips
{
	OFFSET 0.000000 0.000000 0.000000
	CHANNELS 6 Xposition Yposition Zposition Yrotation Xrotation Zrotation
	JOINT Spine
	{
		OFFSET 0.000000 11.335082 0.000008
		CHANNELS 6 Xposition Yposition Zposition Yrotation Xrotation Zrotation
		JOINT Spine1
		{
			OFFSET 0.000000 25.648983 0.000017
			CHANNELS 6 Xposition Yposition Zposition Yrotation Xrotation Zrotation
			JOINT Neck
			{
				OFFSET 0.000000 28.413631 0.000019
				CHANNELS 6 Xposition Yposition Zposition Yrotation Xrotation Zrotation
				JOINT Head
				{
					OFFSET 0.000000 21.426071 2.764667
					CHANNELS 6 Xposition Yposition Zposition Yrotation Xrotation Zrotation
					End Site
					{
						OFFSET 0.000000 27.646538 0.000018
					}
				}
			}
			JOINT LeftShoulder
			{
				OFFSET 5.517776 23.183556 -0.602988
				CHANNELS 6 Xposition Yposition Zposition Yrotation Xrotation Zrotation
				JOINT LeftArm
				{
					OFFSET 15.992189 0.000000 0.000000
					CHANNELS 6 Xposition Yposition Zposition Yrotation Xrotation Zrotation
					JOINT LeftForeArm
					{
						OFFSET 41.472099 0.000000 0.000000
						CHANNELS 6 Xposition Yposition Zposition Yrotation Xrotation Zrotation
						JOINT LeftHand
						{
							OFFSET 37.091515 0.000000 0.000000
							CHANNELS 6 Xposition Yposition Zposition Yrotation Xrotation Zrotation
							End Site
							{
								OFFSET 20.734909 0.000000 0.000000
							}
						}
					}
				}
			}
			JOINT RightShoulder
			{
				OFFSET -5.529053 23.183556 -0.602988
				CHANNELS 6 Xposition Yposition Zposition Yrotation Xrotation Zrotation
				JOINT RightArm
				{
					OFFSET -15.992191 0.000000 0.000000
					CHANNELS 6 Xposition Yposition Zposition Yrotation Xrotation Zrotation
					JOINT RightForeArm
					{
						OFFSET -41.472099 0.000000 0.000000
						CHANNELS 6 Xposition Yposition Zposition Yrotation Xrotation Zrotation
						JOINT RightHand
						{
							OFFSET -37.091511 0.000000 0.000000
							CHANNELS 6 Xposition Yposition Zposition Yrotation Xrotation Zrotation
							End Site
							{
								OFFSET -20.734909 0.000000 0.000000
							}
						}
					}
				}
			}
		}
	}
	JOINT LeftUpLeg
	{
		OFFSET 13.823269 0.000000 0.000000
		CHANNELS 6 Xposition Yposition Zposition Yrotation Xrotation Zrotation
		JOINT LeftLeg
		{
			OFFSET 0.000000 -71.945976 -0.000047
			CHANNELS 6 Xposition Yposition Zposition Yrotation Xrotation Zrotation
			JOINT LeftFoot
			{
				OFFSET 0.000000 -57.796150 -0.000037
				CHANNELS 6 Xposition Yposition Zposition Yrotation Xrotation Zrotation
				JOINT LeftToeBase
				{
					OFFSET 0.000000 -8.985123 20.734898
					CHANNELS 6 Xposition Yposition Zposition Yrotation Xrotation Zrotation
					End Site
					{
						OFFSET 0.000000 0.000000 5.529308
					}
				}
			}
		}
	}
	JOINT RightUpLeg
	{
		OFFSET -13.823269 0.000000 0.000000
		CHANNELS 6 Xposition Yposition Zposition Yrotation Xrotation Zrotation
		JOINT RightLeg
		{
			OFFSET 0.000000 -71.945976 -0.000047
			CHANNELS 6 Xposition Yposition Zposition Yrotation Xrotation Zrotation
			JOINT RightFoot
			{
				OFFSET 0.000000 -57.796150 -0.000037
				CHANNELS 6 Xposition Yposition Zposition Yrotation Xrotation Zrotation
				JOINT RightToeBase
				{
					OFFSET 0.000000 -8.985123 20.734898
					CHANNELS 6 Xposition Yposition Zposition Yrotation Xrotation Zrotation
					End Site
					{
						OFFSET 0.000000 0.000000 5.529308
					}
				}
			}
		}
	}
}
MOTION
Frames: 5
Frame Time: 0.041667
-4.722134 118.629662 -18.550888 -0.656174 9.003614 2.752364 -0.000002 11.335081 -0.000001 2.326506 7.636759 -4.107575 -0.000001 25.648993 0.000019 0.856178 4.005367 0.316733 -0.000002 28.413610 0.000020 20.866595 11.997261 22.764544 -0.000007 21.426151 2.764636 21.754453 13.804194 -22.456415 5.517776 23.183538 -0.602989 -10.579524 -2.056144 2.811872 15.992208 0.000038 0.000018 -12.806371 23.457479 -23.655237 41.472095 0.000000 -0.000004 -6.859250 -12.593691 17.383323 37.091541 -0.000002 -0.000019 0.494272 -13.785910 38.874541 -5.529049 23.183533 -0.602991 6.360645 -0.146139 -9.125198 -15.992179 -0.000020 0.000031 82.254336 54.587650 52.407557 -41.472130 0.000019 -0.000008 -117.565587 -215.763217 136.502328 -37.091515 0.000007 -0.000006 179.953532 -190.006082 -231.644964 13.823269 0.000031 -0.000010 -12.610203 -11.430859 30.812978 -0.000014 -71.945961 -0.000045 32.646644 24.070017 -13.036783 -0.000020 -57.796112 -0.000038 19.369158 -3.689725 -9.244500 -0.000007 -8.985122 20.734905 -0.000000 -0.000004 -0.000000 -13.823268 -0.000005 -0.000012 1.852549 -21.558150 -34.379313 0.000016 -71.945976 -0.000048 -3.832124 34.506823 30.736367 0.000029 -57.796165 -0.000035 -32.263952 -21.279485 5.590937 -0.000004 -8.985138 20.734901 0.000002 -0.000000 0.000003 
-4.874793 118.500710 -18.614681 -0.623082 9.060859 2.865234 0.000003 11.335089 0.000009 2.262514 7.565391 -4.114700 -0.000001 25.649004 0.000019 0.831051 3.942421 0.225808 -0.000004 28.413641 0.000022 21.026186 12.007514 22.842753 -0.000005 21.426109 2.764692 21.896089 13.877516 -22.581970 5.517775 23.183578 -0.602995 -10.778295 -2.208152 2.907031 15.992204 0.000026 0.000008 -11.321736 21.592026 -22.258280 41.472095 -0.000011 -0.000000 -5.541627 -9.682568 13.127285 37.091530 0.000022 -0.000029 1.141722 -10.698622 38.083748 -5.529055 23.183552 -0.602988 6.422700 -0.120938 -9.135982 -15.992173 -0.000028 0.000021 81.649236 54.875714 51.954032 -41.472076 -0.000001 0.000009 -117.030633 -215.730555 137.097989 -37.091476 -0.000027 0.000003 180.368111 -190.298141 -231.395608 13.823273 0.000010 0.000004 -12.749074 -11.483602 30.895189 -0.000025 -71.945938 -0.000043 32.720001 24.194487 -13.138885 -0.000003 -57.796127 -0.000036 19.373183 -3.688502 -9.261916 -0.000007 -8.985124 20.734901 0.000007 0.000000 -0.000004 -13.823273 -0.000007 0.000004 1.994926 -21.819149 -34.649249 0.000004 -71.945953 -0.000052 -3.398971 34.913243 31.223923 0.000011 -57.796177 -0.000044 -32.430093 -21.440117 5.653745 -0.000001 -8.985123 20.734913 0.000009 0.000001 -0.000003 
-5.069740 118.360641 -18.637550 -0.510364 9.028063 2.934102 -0.000001 11.335081 0.000016 2.110874 7.469625 -4.111637 -0.000000 25.648951 0.000023 0.778618 3.943717 0.195266 -0.000004 28.413633 0.000020 21.204169 12.032040 22.943469 -0.000003 21.426092 2.764683 22.060135 13.898118 -22.743444 5.517779 23.183548 -0.602981 -10.968363 -2.314494 3.054484 15.992200 0.000023 0.000014 -9.485687 18.858359 -20.724780 41.472115 -0.000031 0.000002 -4.698961 -6.184188 8.768396 37.091530 0.000075 -0.000020 2.051148 -7.226994 37.155136 -5.529048 23.183571 -0.602987 6.539034 -0.137660 -9.137537 -15.992172 -0.000025 -0.000005 81.012122 55.023775 51.485153 -41.472122 0.000009 0.000004 -116.834457 -215.826027 137.563630 -37.091507 0.000012 0.000002 179.895749 -190.423516 -231.682803 13.823277 0.000011 0.000018 -12.946045 -11.438445 31.041345 -0.000033 -71.945961 -0.000039 32.746792 24.327536 -13.283995 -0.000015 -57.796143 -0.000040 19.393825 -3.698748 -9.295716 0.000006 -8.985124 20.734913 0.000003 0.000000 -0.000003 -13.823271 -0.000017 0.000016 2.005707 -21.955155 -34.836922 0.000001 -71.945953 -0.000049 -2.739071 35.231386 31.785662 0.000021 -57.796185 -0.000040 -32.572209 -21.650409 5.783431 -0.000001 -8.985123 20.734894 -0.000003 -0.000002 0.000002 
-5.258718 118.219444 -18.671642 -0.414890 9.035167 2.995654 -0.000000 11.335093 0.000007 1.953172 7.367880 -4.096349 0.000000 25.648966 0.000030 0.724624 3.890769 0.197216 -0.000002 28.413626 0.000015 21.389902 12.048700 23.061377 0.000011 21.426086 2.764647 22.229144 13.945455 -22.923337 5.517777 23.183535 -0.603004 -11.143201 -2.329757 3.217459 15.992198 -0.000012 -0.000003 -8.655680 17.404980 -19.871134 41.472099 0.000020 -0.000009 -3.499359 -3.746527 5.294283 37.091518 0.000042 -0.000035 2.510273 -4.718420 35.873168 -5.529050 23.183519 -0.602999 6.590145 -0.114217 -9.169476 -15.992192 -0.000026 0.000008 80.489702 55.162544 51.029870 -41.472107 -0.000007 -0.000066 -116.528642 -215.774897 138.018042 -37.091496 -0.000002 0.000008 179.820371 -190.491408 -231.706408 13.823270 0.000004 -0.000000 -12.905739 -11.595319 31.150338 -0.000016 -71.945984 -0.000042 32.539113 24.506522 -13.373080 -0.000020 -57.796185 -0.000039 19.372052 -3.711725 -9.337514 -0.000004 -8.985124 20.734905 0.000004 -0.000002 -0.000006 -13.823270 0.000010 -0.000001 1.973293 -22.157991 -34.994440 0.000014 -71.945930 -0.000035 -2.064589 35.435534 32.483919 0.000004 -57.796188 -0.000041 -33.095255 -21.905588 5.671037 -0.000001 -8.985123 20.734901 0.000007 -0.000001 0.000003 
-5.440086 118.074791 -18.698153 -0.321081 9.017346 3.088658 0.000001 11.335151 0.000003 1.759931 7.270729 -4.023640 -0.000000 25.649019 0.000004 0.659510 3.881034 0.242487 -0.000003 28.413687 0.000014 21.572036 12.085342 23.130977 0.000030 21.426109 2.764664 22.396885 13.943017 -23.077338 5.517777 23.183527 -0.602977 -11.258275 -2.459331 3.388140 15.992206 0.000062 0.000007 -8.921686 17.795197 -19.727249 41.472107 0.000016 0.000001 -1.863519 -2.272707 2.726102 37.091522 -0.000009 -0.000028 2.668173 -3.143421 34.448428 -5.529048 23.183548 -0.602980 6.731804 -0.126237 -9.209354 -15.992184 0.000022 0.000019 79.908705 55.330481 50.607313 -41.472115 -0.000013 -0.000004 -115.895838 -215.573474 138.623853 -37.091476 0.000026 -0.000009 180.439200 -190.641672 -231.222285 13.823269 0.000044 -0.000000 -13.078958 -11.568930 31.262554 -0.000004 -71.945946 -0.000044 32.553221 24.631776 -13.515898 -0.000010 -57.796181 -0.000030 19.397333 -3.734885 -9.351133 -0.000020 -8.985123 20.734882 -0.000009 0.000002 0.000001 -13.823271 0.000054 -0.000001 2.030547 -22.316255 -35.241724 -0.000000 -71.945992 -0.000048 -1.218703 35.641071 33.271446 0.000029 -57.796143 -0.000044 -33.579136 -22.088895 5.733934 0.000009 -8.985125 20.734903 -0.000001 0.000004 0.000001 
